<?xml version="1.0" encoding="utf-8"?><svg xmlns="http://www.w3.org/2000/svg" xmlns:xlink="http://www.w3.org/1999/xlink"><symbol viewBox="0 0 26 26" id="checked" xmlns="http://www.w3.org/2000/svg"><path d="M.3 14c-.2-.2-.3-.5-.3-.7s.1-.5.3-.7l1.4-1.4c.4-.4 1-.4 1.4 0l.1.1 5.5 5.9c.2.2.5.2.7 0L22.8 3.3h.1c.4-.4 1-.4 1.4 0l1.4 1.4c.4.4.4 1 0 1.4l-16 16.6c-.2.2-.4.3-.7.3-.3 0-.5-.1-.7-.3L.5 14.3.3 14z"/></symbol><symbol viewBox="0 0 511.998 511.998" id="closing" xmlns="http://www.w3.org/2000/svg"><path d="M505.745 301.876c-10.644-16.685-31.932-22.852-49.703-14.916-2.73-10.688-9.853-20.052-19.986-25.389-5.705-3.005-12.104-4.594-18.502-4.594-13.979 0-26.675 7.12-33.967 19.051l-46.791 76.685-.33.182a37.058 37.058 0 0 1-24.025 4.089l-114.516-19.397c-7.908-1.339-13.535-8.646-12.812-16.634.391-4.318 2.494-8.161 5.922-10.819 3.427-2.658 7.67-3.737 11.951-3.042l99.424 16.157c17.909 2.91 35.366-8.607 39.738-26.218 2.281-9.194.745-18.663-4.324-26.663s-12.976-13.431-22.264-15.292l-158.721-31.82a109.735 109.735 0 0 0-19.49-2.116c-28.929-.545-56.743 14.563-72.613 39.388-15.361 24.025-36.315 44.625-60.601 59.569a8.681 8.681 0 0 0 9.099 14.787c26.501-16.309 49.369-38.786 66.13-65.005 12.643-19.776 34.76-31.774 57.667-31.381 5.493.101 11.01.7 16.397 1.78l158.721 31.82c4.593.921 8.504 3.607 11.011 7.564 2.508 3.956 3.268 8.639 2.139 13.187-2.212 8.91-11.043 14.738-20.103 13.263l-99.423-16.157a32.925 32.925 0 0 0-25.376 6.46 32.924 32.924 0 0 0-12.572 22.971c-1.537 16.961 10.412 32.475 27.203 35.319l114.516 19.397a54.49 54.49 0 0 0 35.326-6.013l116.533-64.428c10.32-5.703 23.369-2.388 29.71 7.552a22.235 22.235 0 0 1 2.976 16.922 22.248 22.248 0 0 1-9.89 14.049l-150.605 95.177a65.833 65.833 0 0 1-44.987 9.438l-89.993-13.596a8.68 8.68 0 1 0-2.593 17.167l89.993 13.595a83.17 83.17 0 0 0 56.854-11.929l150.605-95.177c9.003-5.69 15.239-14.547 17.56-24.941 2.316-10.394.44-21.062-5.288-30.042zm-138.257 33.867l30.916-50.667c4.109-6.724 11.268-10.738 19.149-10.738 3.59 0 7.19.896 10.411 2.593 7.092 3.735 11.553 10.973 11.913 18.79l-72.389 40.022z"/><path d="M169.241 428.767l-58.511-8.84a46.154 46.154 0 0 0-32.294 7.084l-15.015 9.874a8.68 8.68 0 0 0 4.778 15.934 8.636 8.636 0 0 0 4.762-1.429l15.015-9.874a28.797 28.797 0 0 1 20.161-4.422l58.511 8.839a8.682 8.682 0 0 0 9.881-7.286c.714-4.74-2.549-9.164-7.288-9.88zM455.579 83.988a8.681 8.681 0 0 0-12.185-1.504 8.68 8.68 0 0 0-1.504 12.183c10.825 13.872 16.546 30.529 16.546 48.171 0 43.218-35.16 78.38-78.38 78.38-29.599 0-56.357-16.383-69.833-42.756a8.68 8.68 0 0 0-7.731-4.731h-137.91l-6.431-10.138h35.682a8.681 8.681 0 0 0 0-17.362h-40.951v-7.073l24.933-24.932 14.355 8.726a8.685 8.685 0 0 0 9.018 0l15.303-9.301 22.614 16.05a8.684 8.684 0 0 0 10.049 0l25.009-17.753h28.329a8.683 8.683 0 0 0 7.731-4.731c13.476-26.374 40.234-42.756 69.833-42.756 15.84 0 31.097 4.699 44.123 13.59a8.682 8.682 0 0 0 9.787-14.341c-15.923-10.867-34.565-16.612-53.911-16.612-34.348 0-65.564 18.062-82.71 47.487h-25.95c-1.801 0-3.557.56-5.024 1.602l-22.244 15.789-22.245-15.789a8.68 8.68 0 0 0-9.533-.339l-15.672 9.526-15.672-9.526a8.681 8.681 0 0 0-10.647 1.28l-32.295 32.295a8.683 8.683 0 0 0-2.543 6.143v22.239c0 1.647.469 3.259 1.351 4.649l15.607 24.608a8.68 8.68 0 0 0 7.33 4.031h137.538c17.145 29.425 48.361 47.487 82.71 47.487 52.792 0 95.741-42.949 95.741-95.741.002-21.548-6.99-41.899-20.218-58.851z"/><path d="M406.731 111.011c-17.552 0-31.83 14.278-31.83 31.83s14.278 31.83 31.83 31.83c17.551 0 31.83-14.278 31.83-31.83s-14.279-31.83-31.83-31.83zm0 46.299c-7.978 0-14.468-6.49-14.468-14.468s6.49-14.468 14.468-14.468c7.977 0 14.468 6.49 14.468 14.468s-6.491 14.468-14.468 14.468zm-108.729-11.077h-75.231a8.681 8.681 0 0 0 0 17.362h75.231a8.681 8.681 0 0 0 0-17.362z"/></symbol><symbol viewBox="0 0 512.001 512.001" id="deposit" xmlns="http://www.w3.org/2000/svg"><path d="M424.498 111.298H155.095l89.604-89.604 81.888 81.888c3.511 3.509 9.2 3.509 12.709 0 3.509-3.509 3.509-9.2 0-12.708L251.053 2.632c-3.509-3.509-9.2-3.509-12.708 0L129.678 111.299H83.53c-35.382 0-64.168 28.792-64.168 64.182v272.337c0 35.39 28.786 64.182 64.168 64.182h70.74a8.987 8.987 0 0 0 0-17.973H83.53c-25.472 0-46.195-20.73-46.195-46.21V175.48c0-25.48 20.724-46.21 46.195-46.21h340.968c15.205 0 27.576 12.37 27.576 27.576v56.151c0 4.963 4.022 8.986 8.986 8.986s8.986-4.023 8.986-8.986v-56.151c0-25.116-20.433-45.548-45.548-45.548z"/><path d="M464.735 231.259H336.913c-15.387 0-27.904 12.518-27.904 27.904v104.974c0 15.387 12.517 27.904 27.904 27.904h115.161v74.411c0 15.205-12.37 27.576-27.576 27.576H190.212c-4.963 0-8.986 4.023-8.986 8.986s4.023 8.986 8.986 8.986h234.286c25.115 0 45.548-20.432 45.548-45.548v-74.925c12.854-2.487 22.593-13.821 22.593-27.391V259.162c0-15.386-12.517-27.903-27.904-27.903zm9.932 132.877c0 5.477-4.456 9.932-9.932 9.932H336.913c-5.476 0-9.932-4.456-9.932-9.932V259.162c0-5.477 4.456-9.932 9.932-9.932h127.822c5.476 0 9.932 4.456 9.932 9.932v104.974z"/><path d="M406.155 302.664a8.985 8.985 0 0 0-8.986 8.986c0 8.572-6.973 15.546-15.546 15.546s-15.546-6.973-15.546-15.546 6.973-15.546 15.546-15.546c4.964 0 8.986-4.023 8.986-8.986s-4.022-8.986-8.986-8.986c-18.482 0-33.519 15.037-33.519 33.519s15.037 33.519 33.519 33.519 33.519-15.036 33.519-33.519a8.987 8.987 0 0 0-8.987-8.987z"/></symbol><symbol viewBox="0 0 512 512" id="insulation" xmlns="http://www.w3.org/2000/svg"><path d="M502.737 0H9.265A9.264 9.264 0 0 0 .001 9.264v139.175a9.264 9.264 0 0 0 18.528 0v-47.865l50.242 50.242-50.242 50.242v-22.355a9.264 9.264 0 0 0-18.528 0v324.034a9.264 9.264 0 0 0 9.264 9.264h493.471a9.264 9.264 0 0 0 9.264-9.264V9.264C512.001 4.148 507.853 0 502.737 0zm-24.136 18.528L430.128 67 381.65 18.528h96.951zm-139.656 0L290.474 67l-48.483-48.472h96.954zm-33.903 89.249c3.618 3.618 9.484 3.618 13.1 0a9.263 9.263 0 0 0 0-13.101l-14.57-14.57 56.723-56.723 127.44 127.433-56.727 56.727-91.869-91.869c-3.618-3.618-9.484-3.618-13.1 0a9.263 9.263 0 0 0 0 13.101l22.042 22.042-56.725 56.727L163.919 80.106l56.723-56.723 84.4 84.394zm-26.787 112.867L150.817 348.082l-56.725-56.725 127.437-127.438 56.726 56.725zM199.293 18.528L150.821 67l-48.48-48.472h96.952zm-180.764 0h41.11l-41.11 41.11v-41.11zm5.74 61.573l56.719-56.719 127.439 127.434-56.727 56.726L24.269 80.101zm-5.74 147.151c.021-.02.043-.037.063-.057l63.28-63.279 56.723 56.728L18.529 340.716V227.252zm0 154.4l50.245 50.245-50.245 50.234V381.652zm14.863 111.82l48.485-48.474 48.474 48.474H33.392zm-9.123-132.285l56.723-56.729 127.435 127.435-56.727 56.726L24.269 361.187zm148.783 132.285l48.477-48.477 48.477 48.477h-96.954zm-9.134-132.29l56.727-56.725 127.437 127.437-56.725 56.727-127.439-127.439zm148.788 132.29l48.477-48.477 48.477 48.477h-96.954zm-9.133-132.29l18.82-18.819a9.263 9.263 0 0 0 0-13.101c-3.618-3.618-9.484-3.618-13.101 0l-18.82 18.82-56.727-56.727 127.437-127.437 56.727 56.727-90.089 90.089a9.263 9.263 0 0 0 0 13.101c3.618 3.618 9.484 3.618 13.101 0l19.378-19.378 127.435 127.439-56.724 56.724-127.437-127.438zm189.898 132.29H452.36l41.111-41.111v41.111zm0-82.046l-50.241-50.24 50.241-50.253v100.493zm-.074-126.622l-63.267 63.282-56.73-56.729 120.071-120.072v113.452h.001c-.024.022-.05.043-.075.067zm.076-154.461l-50.242-50.242 50.242-50.242v100.484z"/></symbol><symbol viewBox="0 0 512 512" id="land" xmlns="http://www.w3.org/2000/svg"><path d="M509.362 106.052l-11.614-11.241a8.663 8.663 0 0 0-12.25.2 8.663 8.663 0 0 0 .2 12.25l8.975 8.688v319.675h-74.759V115.95l37.379-36.18 10.158 9.833a8.663 8.663 0 0 0 12.25-.2 8.663 8.663 0 0 0-.2-12.25l-16.185-15.665a8.666 8.666 0 0 0-12.052 0l-46.043 44.565a8.667 8.667 0 0 0-2.638 6.225v55.354h-24.782v-55.354a8.663 8.663 0 0 0-2.638-6.225L329.12 61.488a8.666 8.666 0 0 0-12.052 0l-46.043 44.565a8.667 8.667 0 0 0-2.638 6.225v55.354h-24.782v-55.354a8.663 8.663 0 0 0-2.638-6.225l-46.043-44.565a8.666 8.666 0 0 0-12.052 0l-46.043 44.565a8.667 8.667 0 0 0-2.638 6.225v55.354h-24.779v-55.354a8.663 8.663 0 0 0-2.638-6.225L60.733 61.487a8.666 8.666 0 0 0-12.052 0L2.638 106.052A8.667 8.667 0 0 0 0 112.277v77.879a8.664 8.664 0 1 0 17.328 0V115.95l37.379-36.18 37.379 36.18v319.674H17.327V219.035a8.664 8.664 0 1 0-17.328 0v225.252a8.664 8.664 0 0 0 8.664 8.664h92.086a8.664 8.664 0 0 0 8.664-8.664v-25.991h24.782v25.991a8.664 8.664 0 0 0 8.664 8.664h92.085a8.664 8.664 0 0 0 8.664-8.664v-25.991h24.782v25.991a8.664 8.664 0 0 0 8.664 8.664h92.086a8.664 8.664 0 0 0 8.664-8.664v-25.991h24.782v25.991a8.664 8.664 0 0 0 8.664 8.664h92.086a8.664 8.664 0 0 0 8.664-8.664v-332.01a8.667 8.667 0 0 0-2.638-6.225zM134.196 400.97h-24.782v-40.43h24.782v40.43zm0-57.757h-24.782V242.716h24.782v100.497zm0-117.824h-24.782v-40.43h24.782v40.43zM268.391 400.97h-24.782v-40.43h24.782v40.43zm0-57.757h-24.782v-66.42a8.664 8.664 0 1 0-17.328 0v158.832h-74.758V115.95l37.379-36.18 37.379 36.179v131.965a8.663 8.663 0 0 0 8.664 8.663 8.664 8.664 0 0 0 8.664-8.663v-5.198h24.782v100.497zm0-117.824h-24.782v-40.43h24.782v40.43zm92.085 210.235h-74.758V115.95l37.379-36.18 37.379 36.18v319.674zm42.11-34.654h-24.782v-40.43h24.782v40.43zm0-57.757h-24.782V242.716h24.782v100.497zm0-117.824h-24.782v-40.43h24.782v40.43z"/><circle cx="457.296" cy="205.176" r="8.664"/><circle cx="457.296" cy="380.757" r="8.664"/><circle cx="323.092" cy="205.176" r="8.664"/><circle cx="323.092" cy="380.757" r="8.664"/><circle cx="188.9" cy="205.176" r="8.664"/><circle cx="188.9" cy="380.757" r="8.664"/><circle cx="54.707" cy="205.176" r="8.664"/><circle cx="54.707" cy="380.757" r="8.664"/></symbol><symbol viewBox="0 0 512 512" id="lock" xmlns="http://www.w3.org/2000/svg"><path d="M414.138 232.369h-27.73V130.415c0-38.174-16.708-74.333-45.841-99.205-3.73-3.183-9.335-2.742-12.518.987s-2.742 9.334.987 12.518c25.175 21.493 39.613 52.73 39.613 85.699v101.954h-26.504V130.415c0-47.505-38.644-86.154-86.142-86.154-47.505 0-86.153 38.649-86.153 86.154v82.712a8.879 8.879 0 0 0 8.879 8.879 8.879 8.879 0 0 0 8.879-8.879v-82.712c0-37.713 30.682-68.396 68.395-68.396 37.707 0 68.384 30.682 68.384 68.396v101.954H143.346V130.415c0-62.12 50.538-112.658 112.658-112.658 17.15 0 33.623 3.772 48.963 11.21a8.876 8.876 0 0 0 11.864-4.115c2.14-4.412.297-9.723-4.115-11.864C294.941 4.37 275.861 0 256.005 0c-71.912 0-130.416 58.504-130.416 130.416V232.37H97.862a8.879 8.879 0 0 0-8.879 8.879v167.2a8.879 8.879 0 0 0 8.879 8.879 8.879 8.879 0 0 0 8.879-8.879V250.127h298.517v244.115H106.741v-55.056a8.879 8.879 0 0 0-8.879-8.879 8.879 8.879 0 0 0-8.879 8.879v63.935A8.879 8.879 0 0 0 97.862 512h316.276a8.878 8.878 0 0 0 8.879-8.879V241.248a8.878 8.878 0 0 0-8.879-8.879z"/><path d="M282.779 383.73c15.12-9.211 24.516-25.612 24.516-43.762 0-28.284-23.012-51.295-51.296-51.295s-51.295 23.011-51.295 51.295c0 18.15 9.396 34.552 24.517 43.762l-20.496 60.226a8.877 8.877 0 0 0 8.405 11.74h77.74a8.881 8.881 0 0 0 8.405-11.74l-20.496-60.226zm-53.248 54.208l18.985-55.782a8.879 8.879 0 0 0-5.076-11.092c-12.743-5.155-20.977-17.36-20.977-31.097 0-18.492 15.045-33.537 33.537-33.537 18.493 0 33.538 15.045 33.538 33.537 0 13.736-8.234 25.942-20.977 31.097a8.878 8.878 0 0 0-5.075 11.092l18.984 55.782h-52.939z"/></symbol><symbol viewBox="0 0 511.999 511.999" id="monumental" xmlns="http://www.w3.org/2000/svg"><path d="M508.143 184.019L342.431 72.242a8.746 8.746 0 0 0-12.143 2.361 8.749 8.749 0 0 0 2.359 12.143l141.994 95.778H37.357L256 35.044l53.851 36.324c4.004 2.7 9.442 1.646 12.143-2.361a8.749 8.749 0 0 0-2.359-12.143l-58.743-39.623a8.747 8.747 0 0 0-9.783 0L3.857 184.019a8.747 8.747 0 1 0 4.891 15.999h63.819v180.774H56.268a8.747 8.747 0 0 0-8.747 8.747v40.237H25.076a8.747 8.747 0 0 0-8.747 8.747v48.984a8.747 8.747 0 0 0 8.747 8.747h461.848a8.746 8.746 0 0 0 8.747-8.747v-48.984a8.746 8.746 0 0 0-8.747-8.747h-22.446v-40.237a8.746 8.746 0 0 0-8.747-8.747h-16.298V200.019h63.819a8.748 8.748 0 0 0 4.891-16zm-166.897 16h80.693v180.774h-37.321V220.428c0-4.831-3.915-8.747-8.747-8.747s-8.747 3.916-8.747 8.747v160.364h-25.877V200.019zm-54.814 0h37.321v180.774h-37.321V200.019zm-98.186 0h37.321v25.075c0 4.831 3.916 8.747 8.747 8.747s8.747-3.916 8.747-8.747v-25.075h25.876v180.774h-25.876V254.251c0-4.831-3.916-8.747-8.747-8.747s-8.747 3.916-8.747 8.747v126.542h-37.321V200.019zm-43.371 0h25.876v180.774h-25.876V200.019zm-54.815 0h37.321v180.774H90.06V200.019zm356.923 198.267v31.49H133.54a8.747 8.747 0 0 0-8.747 8.747 8.747 8.747 0 0 0 8.747 8.747h344.636v31.49H33.823v-31.49h70.56a8.747 8.747 0 0 0 8.747-8.747 8.747 8.747 0 0 0-8.747-8.747H65.015v-31.49h381.968z"/><path d="M256 76.976c-23.152 0-41.986 18.834-41.986 41.986s18.834 41.986 41.986 41.986 41.986-18.834 41.986-41.986S279.152 76.976 256 76.976zm0 66.478c-13.504 0-24.492-10.986-24.492-24.492S242.494 94.47 256 94.47s24.492 10.986 24.492 24.492-10.988 24.492-24.492 24.492z"/></symbol><symbol viewBox="0 0 477.175 477.175" id="next" xmlns="http://www.w3.org/2000/svg"><path d="M360.731 229.075l-225.1-225.1c-5.3-5.3-13.8-5.3-19.1 0s-5.3 13.8 0 19.1l215.5 215.5-215.5 215.5c-5.3 5.3-5.3 13.8 0 19.1 2.6 2.6 6.1 4 9.5 4 3.4 0 6.9-1.3 9.5-4l225.1-225.1c5.3-5.2 5.3-13.8.1-19z"/></symbol><symbol viewBox="0 0 477.175 477.175" id="prev" xmlns="http://www.w3.org/2000/svg"><path d="M145.188 238.575l215.5-215.5c5.3-5.3 5.3-13.8 0-19.1s-13.8-5.3-19.1 0l-225.1 225.1c-5.3 5.3-5.3 13.8 0 19.1l225.1 225c2.6 2.6 6.1 4 9.5 4s6.9-1.3 9.5-4c5.3-5.3 5.3-13.8 0-19.1l-215.4-215.5z"/></symbol><symbol viewBox="0 0 511.999 511.999" id="real-estate" xmlns="http://www.w3.org/2000/svg"><path d="M494.3 234.599L335.783 76.082V32.419h58.384v89.013c0 4.937 4.001 8.939 8.939 8.939s8.939-4.002 8.939-8.939V23.48a8.938 8.938 0 0 0-8.939-8.939h-76.263a8.938 8.938 0 0 0-8.939 8.939v34.723L262.321 2.619a8.942 8.942 0 0 0-12.643 0l-68.836 68.836a8.938 8.938 0 0 0 0 12.641 8.938 8.938 0 0 0 12.641 0l62.516-62.516 155.095 155.095V494.12h-310.19V176.675l72.021-72.021a8.938 8.938 0 0 0 0-12.641 8.938 8.938 0 0 0-12.641 0L17.699 234.599a8.938 8.938 0 0 0 0 12.641c1.745 1.745 4.033 2.619 6.321 2.619s4.576-.872 6.321-2.619l52.686-52.686V503.06a8.939 8.939 0 0 0 8.939 8.939h328.068a8.938 8.938 0 0 0 8.939-8.939V194.555l52.685 52.685c1.746 1.745 4.035 2.619 6.322 2.619s4.576-.872 6.322-2.619c3.489-3.491 3.489-9.152-.002-12.641z"/><path d="M309.639 340.462c-27.274 0-49.463 22.189-49.463 49.463s22.189 49.463 49.463 49.463 49.463-22.189 49.463-49.463-22.189-49.463-49.463-49.463zm0 81.048c-17.416 0-31.585-14.169-31.585-31.585s14.169-31.585 31.585-31.585 31.585 14.169 31.585 31.585-14.169 31.585-31.585 31.585zm-72.294-173.831a8.938 8.938 0 0 0-12.641 0 8.938 8.938 0 0 0 0 12.641c5.965 5.965 9.251 13.897 9.251 22.334 0 17.416-14.169 31.585-31.585 31.585s-31.585-14.169-31.585-31.585 14.168-31.584 31.584-31.584c4.937 0 8.939-4.002 8.939-8.939s-4.002-8.939-8.939-8.939c-27.274 0-49.463 22.189-49.463 49.463s22.189 49.463 49.463 49.463 49.463-22.189 49.463-49.463c.001-13.212-5.144-25.632-14.487-34.976zm107.816-.545a8.938 8.938 0 0 0-12.642 0L166.848 412.805a8.938 8.938 0 0 0 0 12.641c1.745 1.745 4.033 2.619 6.321 2.619s4.576-.872 6.321-2.619l165.672-165.672c3.49-3.49 3.49-9.151-.001-12.64z"/></symbol><symbol viewBox="0 0 511.999 511.999" id="savings" xmlns="http://www.w3.org/2000/svg"><path d="M311.84 174.47c-25.784-6.885-53.324-7.744-79.645-2.484a177.883 177.883 0 0 0-21.376 5.68 8.762 8.762 0 0 0 2.772 17.074c.919 0 1.855-.146 2.774-.453a160.175 160.175 0 0 1 19.264-5.118c23.696-4.737 48.486-3.966 71.69 2.23a8.761 8.761 0 0 0 10.725-6.204 8.76 8.76 0 0 0-6.204-10.725z"/><path d="M332.094 151.317c-40.729-13.873-84.143-14.469-125.549-1.72-41.92 12.907-77.917 38.38-104.099 73.668-4.933 6.648-10.26 15.059-15.836 24.999-9.167 16.344-15.396 33.799-18.572 51.652-5.803.494-14.036.127-19.285-3.971-4.282-3.344-6.364-8.969-6.364-17.197a8.761 8.761 0 0 0-17.522 0c0 13.787 4.409 24.219 13.103 31.007 6.587 5.142 15.56 7.857 25.97 7.857h.291a57.17 57.17 0 0 0 1.68-.034 155.118 155.118 0 0 0-.083 18.524c.868 15.332 3.898 29.368 9.008 41.719a8.763 8.763 0 0 0 8.099 5.413 8.734 8.734 0 0 0 3.346-.668 8.76 8.76 0 0 0 4.747-11.446c-4.356-10.53-6.948-22.644-7.704-36.009-1.519-26.839 4.903-53.906 18.57-78.277 5.212-9.295 10.133-17.076 14.624-23.129 23.943-32.268 56.856-55.562 95.184-67.363 37.852-11.655 77.53-11.116 114.742 1.56a8.76 8.76 0 0 0 11.119-5.468 8.763 8.763 0 0 0-5.469-11.117zm146.277 117.178h-37.165a190.738 190.738 0 0 0-10.011-26.428v-83.293a8.761 8.761 0 0 0-8.761-8.761h-9.744a58.263 58.263 0 0 0-42.777 18.701 206.007 206.007 0 0 0-10.807-5.951 8.763 8.763 0 0 0-7.985 15.599 188.03 188.03 0 0 1 11.362 6.323c3.03 1.826 3.8 2.417 3.876 2.478a8.76 8.76 0 0 0 12.701-1.892 40.752 40.752 0 0 1 33.632-17.736h.982v76.498a8.75 8.75 0 0 0 .86 3.786 172.488 172.488 0 0 1 11.518 31.613 8.762 8.762 0 0 0 8.487 6.585h35.072v82.537h-37.675a8.758 8.758 0 0 0-8.359 6.14c-5.857 18.679-14.801 36.146-26.582 51.914a8.764 8.764 0 0 0-1.743 5.244v62.624h-61.476v-46.783a8.76 8.76 0 0 0-11.832-8.205l-1.591.596a178.22 178.22 0 0 1-126.484-.568 8.757 8.757 0 0 0-8.105.957 8.758 8.758 0 0 0-3.8 7.222v46.783h-61.465v-62.624a8.763 8.763 0 0 0-1.746-5.25 173.8 173.8 0 0 1-18.798-31.622c-2.016-4.399-7.219-6.328-11.615-4.312a8.76 8.76 0 0 0-4.312 11.615 191.262 191.262 0 0 0 18.95 32.445v68.509a8.761 8.761 0 0 0 8.761 8.761h78.987a8.761 8.761 0 0 0 8.761-8.761v-43.224a195.678 195.678 0 0 0 116.766-.007v43.231a8.761 8.761 0 0 0 8.761 8.761h78.999a8.761 8.761 0 0 0 8.761-8.761v-68.511c10.839-14.976 19.39-31.303 25.481-48.65h40.116a8.761 8.761 0 0 0 8.761-8.761v-100.06a8.761 8.761 0 0 0-8.761-8.762z"/><path d="M379.618 250.895c-14.082 0-25.54 11.457-25.54 25.54 0 14.082 11.457 25.54 25.54 25.54 14.082 0 25.54-11.457 25.54-25.54 0-14.084-11.457-25.54-25.54-25.54zm0 33.557c-4.42 0-8.017-3.597-8.017-8.017 0-4.422 3.597-8.017 8.017-8.017s8.017 3.597 8.017 8.017-3.596 8.017-8.017 8.017zM257.167 0c-10.947 0-21.789 2.748-31.355 7.944a8.76 8.76 0 0 0-3.516 11.88c2.309 4.252 7.628 5.825 11.88 3.516 7.007-3.806 14.956-5.818 22.991-5.818 26.603 0 48.245 21.643 48.245 48.245 0 26.603-21.643 48.245-48.245 48.245-26.602 0-48.244-21.643-48.244-48.245 0-9.669 2.848-18.995 8.234-26.967a8.762 8.762 0 0 0-14.52-9.81C195.286 39.87 191.4 52.588 191.4 65.768c-.001 36.265 29.502 65.768 65.767 65.768s65.768-29.503 65.768-65.768S293.432 0 257.167 0z"/></symbol><symbol viewBox="0 0 512.002 512.002" id="septic" xmlns="http://www.w3.org/2000/svg"><path d="M503.616 389.767c-22.562 0-33.658-6.258-45.407-12.884-12.506-7.053-26.68-15.046-53.643-15.046-26.964 0-41.138 7.994-53.644 15.047-11.748 6.626-22.845 12.884-45.407 12.884-22.559 0-33.656-6.258-45.404-12.884-12.506-7.053-26.679-15.047-53.642-15.047s-41.135 7.994-53.64 15.047c-11.747 6.626-22.843 12.884-45.403 12.884s-33.656-6.258-45.403-12.884c-12.505-7.053-26.679-15.047-53.64-15.047a8.384 8.384 0 0 0 0 16.768c22.559 0 33.656 6.258 45.403 12.884 12.505 7.053 26.679 15.047 53.64 15.047s41.135-7.994 53.64-15.047c11.747-6.626 22.843-12.884 45.403-12.884s33.657 6.258 45.404 12.884c12.506 7.053 26.679 15.047 53.641 15.047 26.964 0 41.138-7.994 53.644-15.047 11.748-6.626 22.846-12.884 45.407-12.884 22.562 0 33.658 6.258 45.406 12.884 12.506 7.053 26.68 15.047 53.644 15.047a8.384 8.384 0 0 0 .001-16.769z"/><path d="M503.616 352.893c-8.707 0-15.703-.935-21.692-2.461v-75.849c0-37.842-30.792-68.629-68.639-68.629-18.338 0-35.572 7.141-48.526 20.109a8.386 8.386 0 0 0 11.864 11.852c9.786-9.796 22.806-15.191 36.663-15.191 28.602 0 51.871 23.265 51.871 51.861v32.37c-2.332-1.222-4.62-2.507-6.958-3.825-12.505-7.049-26.678-15.04-53.628-15.04-19.823 0-32.728 4.324-43.146 9.415v-22.919c0-5.752.933-11.397 2.776-16.782a8.385 8.385 0 0 0-15.865-5.429 68.473 68.473 0 0 0-3.679 22.211v68.886c-5.907 3.132-12.187 5.914-20.315 7.628v-76.515c0-37.842-30.787-68.629-68.629-68.629-18.331 0-35.568 7.14-48.534 20.106s-20.106 30.198-20.106 48.523v51.979c-9.773 1.733-17.399 4.687-24.021 7.946v-59.924c0-37.842-30.787-68.629-68.629-68.629-18.333 0-35.568 7.14-48.534 20.106-12.965 12.967-20.105 30.199-20.105 48.523v51.646c-5.164-.802-10.907-1.269-17.398-1.269a8.384 8.384 0 0 0 0 16.768c22.559 0 33.656 6.258 45.403 12.884 6.424 3.623 13.066 7.369 21.55 10.241a8.364 8.364 0 0 0 2.689.444 8.39 8.39 0 0 0 7.942-5.699c1.485-4.386-.869-9.144-5.255-10.629-6.991-2.365-12.673-5.569-18.687-8.962-5.771-3.254-11.9-6.709-19.474-9.485v-18.724c3.889 1.812 7.516 3.844 11.246 5.948 12.504 7.053 26.675 15.046 53.635 15.046 17.105 0 28.913-3.115 38.852-7.434v18.261c-9.711 5.12-20.48 9.273-38.854 9.273a8.384 8.384 0 0 0 0 16.768c26.963 0 41.135-7.994 53.64-15.047 11.747-6.626 22.843-12.884 45.403-12.884 11.669 0 21.229 1.64 30.086 5.162a8.386 8.386 0 0 0 6.197-15.583c-10.893-4.332-22.422-6.349-36.283-6.349-.891 0-1.766.01-2.63.027v-20.102c.864-.019 1.739-.029 2.625-.029 22.56 0 33.656 6.26 45.404 12.886 12.506 7.055 26.679 15.05 53.643 15.05.694 0 1.376-.011 2.06-.022v20.104a125.9 125.9 0 0 1-2.056.018c-19.808 0-30.659-4.899-39.274-9.491-4.086-2.177-9.165-.63-11.342 3.455s-.63 9.165 3.455 11.342c11.169 5.953 24.613 11.461 47.161 11.461 26.964 0 41.138-7.994 53.644-15.047 11.748-6.626 22.845-12.884 45.407-12.884 22.562 0 33.658 6.258 45.406 12.884 12.506 7.053 26.68 15.047 53.644 15.047a8.384 8.384 0 0 0 8.384-8.384 8.393 8.393 0 0 0-8.391-8.384zm-357.333-46.147c-10.22 5.399-20.641 9.279-38.853 9.279-22.556 0-33.651-6.258-45.396-12.883-5.913-3.335-11.99-6.757-19.484-9.509v-19.048c0-13.845 5.396-26.868 15.195-36.666 9.798-9.798 22.824-15.195 36.677-15.195 28.596 0 51.861 23.265 51.861 51.861v32.161zm161.29 9.259c-.682.011-1.366.02-2.061.02-22.559 0-33.656-6.259-45.404-12.886-12.506-7.055-26.68-15.05-53.643-15.05-.883 0-1.756.012-2.625.03v-13.533c0-13.846 5.396-26.868 15.195-36.666 9.798-9.798 22.824-15.195 36.677-15.195 28.596 0 51.861 23.265 51.861 51.861v41.419zm157.582 27.824c-2.351-1.23-4.637-2.516-6.947-3.82-12.505-7.053-26.679-15.047-53.643-15.047-19.819 0-32.726 4.321-43.142 9.409v-17.9c10.967-6.132 22.036-11.615 43.146-11.615 22.549 0 33.646 6.256 45.392 12.879 4.727 2.664 9.578 5.396 15.193 7.797v18.297zm38.461-173.56H490.76v-29.776h12.856a8.384 8.384 0 0 0 0-16.768h-50.492v-9.874a8.384 8.384 0 0 0-16.768 0v9.874H264.943v-9.874a8.384 8.384 0 0 0-16.768 0v9.874H76.763v-9.874a8.384 8.384 0 0 0-16.768 0v9.874H8.384a8.384 8.384 0 0 0 0 16.768h13.974v29.776H8.384a8.384 8.384 0 0 0 0 16.768h495.231a8.384 8.384 0 0 0 .001-16.768zm-443.621-.001H39.127v-29.776h20.868v29.776zm75.271 0H76.763v-29.776H97.63v15.803a8.384 8.384 0 0 0 16.768 0v-15.803h20.868v29.776zm37.637.001h-20.868v-29.776h20.868v29.776zm37.636-.001h-20.868v-29.776h20.868v29.776zm37.636.001h-20.868v-29.776h20.868v29.776zm37.636-.001h-20.868v-29.776h20.868v29.776zm37.636.001h-20.868v-29.776h20.868v29.776zm37.636-.001h-20.868v-29.776h20.868v29.776zm37.636 0h-20.868v-29.776h20.868v29.776zm37.636.001h-20.868v-29.776h20.868v29.776zm37.636-.001h-20.868v-29.776h20.868v29.776z"/></symbol><symbol viewBox="0 0 512 512" id="well" xmlns="http://www.w3.org/2000/svg"><path d="M470.846 298.414c-26.26-30.366-62.416-50.46-101.808-56.581-5.126-.798-9.929 2.714-10.726 7.841-.797 5.127 2.714 9.928 7.841 10.726 34.997 5.438 67.13 23.303 90.479 50.305 23.588 27.276 36.577 62.127 36.577 98.133v48.884H391.777v-48.884c0-26.901-21.885-48.786-48.786-48.786h-60.297a9.395 9.395 0 0 0-7.829 4.201c-17.759 26.772-47.503 42.754-79.562 42.754-32.058 0-61.801-15.983-79.562-42.754a9.395 9.395 0 0 0-7.829-4.201h-91.43a9.395 9.395 0 0 0 0 18.79h86.527c21.503 29.498 55.632 46.955 92.296 46.955 36.665 0 70.794-17.458 92.296-46.955h55.391c16.541 0 29.997 13.457 29.997 29.997v58.279a9.395 9.395 0 0 0 9.395 9.395h120.221a9.395 9.395 0 0 0 9.395-9.395v-58.279c0-40.521-14.616-79.736-41.154-110.425z"/><path d="M195.172 157.735h2.243c36.973 0 71.018 7.318 101.189 21.75 8.873 4.245 18.393 6.397 28.293 6.397 17.892 0 34.616-7.065 47.093-19.893 12.472-12.824 19.067-29.749 18.57-47.658-.929-33.487-27.809-61.458-61.194-63.677-10.632-.708-21.343 1.17-30.976 5.426-21.991 9.716-44.067 16.305-65.972 19.75v-5.16c0-21.605-17.577-39.18-39.18-39.18-21.604 0-39.18 17.577-39.18 39.18v4.836c-21.213-3.53-42.579-10.02-63.863-19.425-9.634-4.256-20.342-6.133-30.976-5.426a9.395 9.395 0 0 0-8.751 9.997c.344 5.177 4.833 9.094 9.997 8.751 7.72-.512 15.169.787 22.135 3.864 36.303 16.041 72.959 24.174 108.95 24.174h5.481c35.992 0 72.649-8.133 108.952-24.174 6.966-3.079 14.416-4.379 22.135-3.864 23.817 1.583 42.994 21.549 43.658 45.451.356 12.794-4.353 24.882-13.256 34.037-8.909 9.159-20.85 14.203-33.624 14.203-7.072 0-13.863-1.533-20.186-4.557-32.723-15.654-69.496-23.59-109.297-23.59h-2.243c-39.8 0-76.574 7.936-109.297 23.59-6.322 3.024-13.114 4.557-20.186 4.557-12.774 0-24.714-5.044-33.624-14.203-8.904-9.155-13.613-21.243-13.258-34.037.341-12.277 5.486-23.803 14.489-32.458 3.74-3.596 3.858-9.544.262-13.284s-9.544-3.858-13.284-.262C7.696 84.942.505 101.095.026 118.332c-.497 17.91 6.098 34.835 18.571 47.659 12.476 12.828 29.201 19.891 47.092 19.891 9.901 0 19.419-2.152 28.293-6.397 19.202-9.185 39.979-15.476 62.077-18.845v43.767c-19.229 7.071-36.487 19.236-49.592 35.42H16.482a9.395 9.395 0 0 0 0 18.79h94.587a9.395 9.395 0 0 0 7.546-3.799c18.215-24.562 46.167-38.649 76.691-38.649s58.477 14.087 76.691 38.649a9.393 9.393 0 0 0 7.546 3.799h51.329a9.395 9.395 0 0 0 0-18.79h-46.727c-13.134-16.221-30.441-28.405-49.723-35.469v-24.829a9.395 9.395 0 0 0-18.79 0v19.707a113.03 113.03 0 0 0-20.326-1.856c-6.908 0-13.752.648-20.458 1.881v-40.766c6.669-.506 13.445-.76 20.324-.76zm20.458-75.724a223.63 223.63 0 0 1-16.597.641h-5.48c-6.212 0-12.448-.266-18.705-.79V74.67c0-11.245 9.148-20.391 20.391-20.391 11.243 0 20.391 9.148 20.391 20.391v7.341z"/></symbol><symbol viewBox="0 0 512 512" id="window" xmlns="http://www.w3.org/2000/svg"><path d="M502.736 429.002h-26.393V16.898a9.264 9.264 0 0 0-9.264-9.264h-61.754a9.264 9.264 0 0 0 0 18.528h52.49v402.84H54.185V26.162h320.261a9.264 9.264 0 0 0 0-18.528H44.921a9.264 9.264 0 0 0-9.264 9.264v412.104H9.264A9.264 9.264 0 0 0 0 438.266v56.835a9.264 9.264 0 0 0 9.264 9.264h45.9a9.264 9.264 0 0 0 0-18.528H18.528V447.53h474.944v38.307H86.044a9.264 9.264 0 0 0 0 18.528h416.692a9.264 9.264 0 0 0 9.264-9.264v-56.835a9.264 9.264 0 0 0-9.264-9.264z"/><path d="M236.173 283.232a9.264 9.264 0 0 0 9.264-9.264V54.739a9.264 9.264 0 0 0-9.264-9.264H84.576a9.264 9.264 0 0 0-9.264 9.264v345.686a9.264 9.264 0 0 0 9.264 9.264h86.847c.053 0 .104.007.157.007.037 0 .074-.006.11-.007h64.482a9.264 9.264 0 0 0 9.264-9.264v-95.576a9.264 9.264 0 0 0-18.528 0v86.312h-47.495c-4.177-21.543-19.279-80.729-63.97-119.034 43.07-8.448 78.073-35.124 102.328-78.4a225.098 225.098 0 0 0 9.137-18.228v98.468a9.266 9.266 0 0 0 9.265 9.265zm-75.742 107.929H93.84V278.809c44.751 31.634 61.442 88.874 66.591 112.352zm41.177-206.491c-25.077 44.744-61.302 68.785-107.769 71.571V64.003h133.068v47.953c-.692 4.654-6.287 38.794-25.299 72.714zM427.424 45.475H275.828a9.264 9.264 0 0 0-9.264 9.264v345.686a9.264 9.264 0 0 0 9.264 9.264h64.542l.046.003c.022 0 .043-.003.065-.003h86.943a9.264 9.264 0 0 0 9.264-9.264V54.739a9.263 9.263 0 0 0-9.264-9.264zm-94.842 345.686h-47.491v-215.66h.001a225.261 225.261 0 0 0 9.137 18.228c24.253 43.274 59.255 69.951 102.324 78.398-44.691 38.303-59.794 97.491-63.971 119.034zm85.578 0h-66.595c5.15-23.486 21.843-80.724 66.595-112.354v112.354zm0-134.919c-46.298-2.779-82.435-26.662-107.506-71.104-19.138-33.926-24.855-68.49-25.563-73.187V64.003H418.16v192.239z"/></symbol></svg>